<svg xmlns="http://www.w3.org/2000/svg" width="216" height="56" fill="none" xmlns:v="https://vecta.io/nano"><path d="M152.846 34.632c.225.503.234.997.026 1.482-.208.468-.537.901-.988 1.3s-.971.745-1.56 1.04c-.572.295-1.118.503-1.638.624-.572.121-1.179.173-1.82.156-.624 0-1.257-.078-1.898-.234a9.28 9.28 0 0 1-1.846-.624c-.589-.295-1.135-.65-1.638-1.066-.607-.503-1.083-1.101-1.43-1.794a9.88 9.88 0 0 1-.728-2.262 13.99 13.99 0 0 1-.26-2.392l.078-2.288c.052-.641.182-1.309.39-2.002s.494-1.369.858-2.028c.381-.676.832-1.3 1.352-1.872a7.74 7.74 0 0 1 1.872-1.456c.537-.312 1.135-.52 1.794-.624.676-.121 1.352-.147 2.028-.078.693.052 1.343.199 1.95.442.624.225 1.153.537 1.586.936.277.243.563.581.858 1.014.312.433.537.875.676 1.326s.139.875 0 1.274c-.121.381-.468.641-1.04.78-.243.069-.459.087-.65.052-.191-.052-.364-.13-.52-.234-.156-.121-.303-.26-.442-.416l-.39-.468c-.416-.503-.901-.841-1.456-1.014-.555-.191-1.109-.234-1.664-.13-.537.087-1.049.312-1.534.676-.468.347-.832.797-1.092 1.352-.277.589-.503 1.239-.676 1.95a10.84 10.84 0 0 0-.26 2.132 9.2 9.2 0 0 0 .182 2.08c.156.676.416 1.274.78 1.794.277.416.615.754 1.014 1.014a4.21 4.21 0 0 0 1.326.546 3.83 3.83 0 0 0 1.404.052 4.2 4.2 0 0 0 1.404-.468 2.68 2.68 0 0 0 .442-.286l.52-.416.52-.39a2.03 2.03 0 0 1 .598-.26c.312-.104.65-.095 1.014.026.381.121.667.373.858.754zm15.682 3.224c.018.173 0 .338-.052.494-.034.104-.086.191-.156.26-.052.069-.121.139-.208.208a2.91 2.91 0 0 1-.572.286 3.46 3.46 0 0 1-.416.078c-.121.035-.251.035-.39 0-.277-.017-.52-.121-.728-.312-.294-.243-.537-.511-.728-.806l-.286-.468a5.48 5.48 0 0 1-.286-.546l-2.886-5.486a3.37 3.37 0 0 0-.416.026 3.37 3.37 0 0 0-.416.026 7.06 7.06 0 0 1-1.04.026c-.312-.017-.641-.017-.988 0h-.494v4.706c0 .139-.008.269-.026.39v.39a2.71 2.71 0 0 1-.026.338c0 .139-.008.269-.026.39-.034.191-.112.39-.234.598-.121.191-.286.355-.494.494-.364.225-.806.286-1.326.182-.225-.052-.442-.139-.65-.26-.069-.052-.13-.113-.182-.182-.052-.087-.095-.173-.13-.26l-.104-.26a1.34 1.34 0 0 0-.078-.286 1.72 1.72 0 0 1-.078-.494V22.62v-.312l.052-.312a1.48 1.48 0 0 1 .182-.572c.052-.208.139-.355.26-.442.104-.104.26-.191.468-.26.226-.087.546-.121.962-.104l2.314.026 2.288.052 1.586.182c.572.069 1.101.199 1.586.39l.858.364c.33.191.59.373.78.546a5.38 5.38 0 0 1 1.378 2.002c.312.78.468 1.569.468 2.366a5.05 5.05 0 0 1-.676 2.574c-.433.78-1.135 1.361-2.106 1.742-.034.035-.086.061-.156.078a.29.29 0 0 0-.13.026l2.392 4.81.234.416.13.234a1.75 1.75 0 0 1 .13.26 1.4 1.4 0 0 1 .13.286l.156.286.13.598zm-6.5-9.256c.312 0 .607-.052.884-.156.295-.121.555-.277.78-.468a2.64 2.64 0 0 0 .598-.65c.156-.26.243-.537.26-.832.07-.867-.156-1.508-.676-1.924-.52-.433-1.204-.667-2.054-.702l-1.664-.052h-1.69V26v2.6h3.562zm24.64 8.632a1.93 1.93 0 0 1 .026.312c.017.087.026.191.026.312a.98.98 0 0 1-.182.572c-.052.087-.121.173-.208.26a1.36 1.36 0 0 1-.312.182 2.13 2.13 0 0 1-1.378.26 1.79 1.79 0 0 1-.65-.338c-.035-.035-.061-.052-.078-.052-.017-.017-.035-.043-.052-.078l-.052-.052c-.017-.035-.043-.061-.078-.078-.087-.087-.156-.165-.208-.234l-.156-.26a1.03 1.03 0 0 0-.13-.234c-.035-.087-.078-.173-.13-.26-.035-.069-.069-.13-.104-.182a.98.98 0 0 1-.078-.208c-.069-.156-.113-.295-.13-.416l-.546-1.274-3.588.026c-1.179 0-2.366-.009-3.562-.026l-.546 1.274a.98.98 0 0 0-.078.208c0 .069-.017.139-.052.208l-.104.208c-.017.052-.043.113-.078.182l-.156.26-.13.234c-.035.087-.078.173-.13.26-.052.069-.121.147-.208.234-.035.017-.061.043-.078.078l-.052.052c-.017.035-.035.061-.052.078-.017 0-.043.017-.078.052a1.79 1.79 0 0 1-.65.338 2.13 2.13 0 0 1-1.378-.26 1.36 1.36 0 0 1-.312-.182c-.087-.087-.156-.173-.208-.26a.98.98 0 0 1-.182-.572v-.312l.052-.312c.035-.156.078-.312.13-.468l.078-.234 5.408-13.312.156-.416c.035-.104.078-.199.13-.286s.095-.191.13-.312c.087-.225.182-.425.286-.598.052-.104.113-.199.182-.286l.208-.26a1.11 1.11 0 0 1 .442-.338c.243-.087.52-.13.832-.13.329 0 .615.043.858.13a1.11 1.11 0 0 1 .442.338l.39.546c.104.173.199.373.286.598.035.121.078.225.13.312s.095.182.13.286l.156.416 5.408 13.312.078.234c.052.156.095.312.13.468zm-6.162-6.37l-.702-1.56-.728-1.638-.208-.468-.208-.494-.182.494-.208.468-.754 1.638-.676 1.56-.468 1.144h4.602l-.468-1.144zm19.275-9.464c.19.225.286.459.286.702a2.45 2.45 0 0 1-.026.338c0 .104-.009.199-.026.286-.052.191-.165.373-.338.546-.139.104-.33.182-.572.234a2.75 2.75 0 0 1-.364.078c-.122.017-.252.043-.39.078-.122.017-.243.026-.364.026h-.39-1.326l-.936.026h-.884l.026 1.742-.026 2.132-.026 2.834v3.744 1.976c0 .173.008.303.026.39v.208a1.15 1.15 0 0 1-.026.208c-.035.156-.061.338-.078.546a1.35 1.35 0 0 1-.026.26 2.09 2.09 0 0 1-.078.234c-.07.069-.104.121-.104.156l-.078.156c-.087.173-.252.338-.494.494-.382.191-.806.234-1.274.13-.295-.035-.52-.113-.676-.234-.156-.156-.269-.312-.338-.468-.104-.191-.165-.373-.182-.546a1.55 1.55 0 0 1-.078-.494V23.816h-.65-1.066l-1.04-.052-.676-.052-.494-.078-.52-.104c-.364-.104-.65-.269-.858-.494-.191-.225-.286-.477-.286-.754v-.312c0-.104.017-.199.052-.286.052-.208.19-.381.416-.52a2.1 2.1 0 0 1 .312-.182c.156-.087.303-.147.442-.182.208-.069.468-.121.78-.156.138-.017.277-.026.416-.026h.442 1.716l1.742-.026h2.99l2.99.052.65.078a2.83 2.83 0 0 1 .624.182c.156.052.303.121.442.208.138.069.251.165.338.286zm5.917 2.314l-.052 4.082h1.04l1.898-.026 1.846.026h.13l.598.026h.598c.208.017.407.052.598.104l.572.13a1.77 1.77 0 0 1 .728.468 1.21 1.21 0 0 1 .26.754v.312c0 .104-.018.199-.052.286-.035.191-.148.364-.338.52-.087.121-.252.208-.494.26-.226.069-.451.113-.676.13-.243.052-.486.078-.728.078h-1.222l-4.81.026-.052 5.096 5.174.052h1.222.39c.121 0 .234.009.338.026l.364.078c.121 0 .234.017.338.052a1.5 1.5 0 0 1 .52.286c.173.173.286.355.338.546.017.087.026.182.026.286.017.087.017.182 0 .286a1.21 1.21 0 0 1-.26.754c-.208.243-.451.399-.728.468-.364.156-.763.234-1.196.234l-.598.026-.598.026h-.156-4.212c-.347 0-.624-.009-.832-.026h-.572-.494-.676c-.399.035-.728-.035-.988-.208-.191-.121-.338-.286-.442-.494-.052-.052-.078-.104-.078-.156a.33.33 0 0 0-.052-.078c-.018-.017-.035-.043-.052-.078-.035-.087-.061-.173-.078-.26a1.68 1.68 0 0 1-.026-.286l-.052-.26a1.35 1.35 0 0 0-.026-.26v-.416-.208a.87.87 0 0 0 .026-.208v-2.028l.052-3.744v-3.458-1.664l.052-1.586v-.13l.026-.52.026-.52c.017-.347.112-.685.286-1.014.069-.139.138-.26.208-.364.086-.104.199-.191.338-.26.26-.156.528-.234.806-.234.138 0 .242.009.312.026v-.026h.754.546.598c.208-.017.494-.026.858-.026l1.976-.026 1.924.026h.104l.598.026.598.026a2.17 2.17 0 0 1 .572.078c.19.035.381.087.572.156.294.087.537.234.728.442.156.243.234.485.234.728v.312a.71.71 0 0 1-.052.26c-.018.173-.122.355-.312.546l-.234.13a.92.92 0 0 1-.26.13c-.104.035-.217.061-.338.078a1.9 1.9 0 0 0-.312.026c-.139.035-.269.052-.39.052h-.364-1.17l-5.2.026v.078z" fill="#fff"/><g fill-rule="evenodd" fill="#fefefe"><path d="M101.021 42.22c-.096-.226.07-.736.066-1.028-.005-.344-.117-.724-.219-1.03.011-.007.027-.032.033-.022l.475-.177c.189-.072.322-.195.505-.249l-.584 1.927-.113.312-.068.149-.095.117zm8.871-5.498c.229-.057.469-.166.729-.128.048 1.268.016.952.218 2.199.33 2.028-.694 2.177-1.346 1.563a2.1 2.1 0 0 1-.512-.69c-.257-.518-.422-1.697-.282-2.063.395.859.586 2.46 1.419 2.728.258.083.602.046.236-.409-.071-.088-.153-.218-.219-.339-.342-.628-.409-2.395-.243-2.862zm-11.36 2.295c-.194-.051-.584-.188-.486.181.031.27.064.472-.16.617-.145.094-.444.189-.62.069-.25-.172-.1-1.05-.214-1.418-.154-.495-.576-.381-.733-.894-.127-.417-.173-1.099.198-1.216l.257.632c.069.147.075.079.141.197.142.255.264.695.412.872-.043-.353-.272-.517-.244-.847.178.034.393.329.426.452.043.16-.108.09.081.133.05-.235-.03-.425-.089-.606l.432-.001.031.132c.039.123.177.297.309.344-.064-.066-.174-.204-.192-.315-.034-.207-.005-.057.02-.115.175-.06.629-.048.782.048s.255.419.318.622c.121.39.368 1.162.063 1.473l-.243-.153c.057-.347.05-.054-.076-.506.4.099.158.359.233.525.19-.261.092-.541-.215-.595-.175.498-.106.123-.023.531l-.407-.161zm13.481-2.705l.57-.035c.061.779.391 1.766.43 2.157-.413-.219-1.019-1.394-1-2.121zm-15.163-.226c.019-.138.169-.375.267-.5.597.719.798.476 1.423 1.013-.874-.028-1.247.06-1.69-.513zm11.863-.506c.534.114.513.379.482.954-.028.51-.007.941.01 1.437l-.299-1.148c-.102-.444-.145-.775-.193-1.243zm-2.459 2.565c.242-.086.729-1.063.859-1.286.102-.174.739-1.236.845-1.278.056 1.134-1.388 2.511-1.87 3.515-.063.131-.179.43-.292.495-.153-.378-.057-.929.031-1.316.131-.572.256-.612.503-.997.19-.297.361-.637.531-.972.128-.254.287-.866.498-.971-.005.285-.466 1.066-.62 1.366-.144.283-.606 1.124-.485 1.444zm-1.844-1.449c-.155-.069-.088-.044-.15-.207-.085-.225-.191-.362-.253-.693-.083-.444-.067-.765-.07-1.217.053.051.003-.038.079.099.209.379.533 1.706.394 2.019zm.35-1.512c.561.059.497.114 1.054-.02a1.73 1.73 0 0 0 .429-.172c.311-.166.175-.138.393-.237-.207.544-.315.741-.653 1.06-.152.143-.834.608-1.058.656l-.016-.663c.043-.317-.121-.236-.149-.624zm-9.001-.496c-.205.614-2.045 1.044-2.429.506-.163-.229-.027-.443.146-.563s.422-.143.659-.201c.222-.055.418-.16.621-.238.221-.084.483-.146.668.004l-.15.174c-.092.089-.077.066-.125.172.231-.065.228-.091.506-.05l-.027.017-.09.04c-.261.11-.194.078-.38.032.08.099.052.032.076.193l-.378.151c.166.137.268-.029.327-.147.358.074.138-.073.385-.102l-.379.293c-.557.316-.591-.055-.805.042.231.138.144.014.33.204.268-.022.37-.057.581-.183.569-.34.191-.148.463-.346zm4.598-.407l.192-.543c.142.281-.32.983-.447 1.128-.133.151-.751.648-.926.725l-.086-.234c-.058.081-.022-.095-.046.09-.014.11.029.163.13.208a2.53 2.53 0 0 0 .381.099c.262.053.55-.011.822-.015.047.099.033.169.103.244s.107.049.194.109c.292.203.606 1.013.69 1.116-.005-.541-.173-.522-.254-.814.099.112.257.445.333.604l.024-.031.085-.182c.152-.427-.314-.85-.331-1.644l.06-.043a1.06 1.06 0 0 1 .062-.03c.059-.029.056-.023.114-.055.089-.049.139-.078.234-.11.242-.079.282-.057.479-.191l-.015-.129a1.82 1.82 0 0 0-.19-.072c-.35.22-.246.087-.417.213-.253.187-.126.21-.324.341a.83.83 0 0 1 .152-.431c.265-.363.644-.586 1.121-.361.24.063.268.154.51.168.048.107.341.43.463.796-.151-.075-.182-.077-.258-.236-.173-.36-.074-.187-.181-.252.099.25.23.368.232.626-.215-.104-.203-.207-.409-.593.084.299.31.53.355.798-.294-.197-.38-.269-.465-.534l.013-.003c-.056.787 1.777.904.45 2.926-.081.123-.151.229-.283.293.025-.387.552-.959.396-1.48-.134.018-.155.117-.245.241-.407.564-.352.697-.267 1.174l-.033-.026-.105-.094c-.782-.816.057-1.373.11-1.554.049-.165-.043-.224-.043-.224-.131.056-.535.514-.668.661l-.253.22.374-.87c.107-.139.156-.093.075-.226-.122.073-.056.081-.216.3-.31.426-.335.697-.501.917-.29.386-.078-.089-.308.683-.104.347-.223.4-.252.477-.074.201.03.167.033.171.152-.101.062-.107.126-.174l.085.236c.266-.309.065-.161.445-.496.089-.079.056-.082.159-.132.299.939-.854 1.716-1.459 1.58-.139-.326.012-.627.069-.918.063-.325.036-.637.042-.97l.067-.037c.003-.001.014-.005.025-.006-.015-.374.027-.289-.357-.48l-.012-.207.193-.086c-.074-.14-.093-.209-.292-.221.096.438.196.817.22 1.308-.179-.27-.155-1.009-.682-1.517-.144-.139-.121-.163-.295-.262-.931-.53-1.812-.255-2.193-1.629-.057-.206-.1-.235.012-.365l.754-.86c.581.686 1.632.252 1.72.002.091-.242.027-.218.172-.389.203.158.383.37.391.677l.19.038c-.076.28-.178.573-.044.556zm7.999-.01c.032-.089-.142-.307-.226-.405l-.309-.457c.311.08.45.375.943.724l.168.131c.784.529 1.92.842 2.144 1.006-.125.284-.832.39-1.088.367-.471-.042-1.39-.646-1.708-1.192-.136-.235-.465-.712-.506-.967.092.067.048-.018.189.215a2.13 2.13 0 0 0 .141.203c.106.137.147.24.252.375zm3.279.427c.066-.168-.03-.043.114-.159l1.158-.938c.194-.221.202-.205.339-.443.088.001.104-.005.185.02.131.041.095.044.144.074-.015.201-.301.659-.393.792-.099.145-.142.144-.284.279-.107.102-.273.166-.419.215.089-.181.159-.2.335-.388l.28-.311c-.144.197-.375.412-.587.52-.177.09-.158.126-.387.204a4.63 4.63 0 0 1-.485.134zm-2.478-2.157c.219-.031.425-.174.742-.207.551-.059 1.712.157 2.047.717.282.469-.632 1.828-2.01.829-.264-.03-.835-.622-1.083-.738l-.391-.19.695-.411zm4.267.28c-.028-.054-.07.041.013-.1.155-.264.361-.402.369-.851.16.096.007.051.277.246.097.07.179.144.301.213.207.118.441.209.657.323l-.09.076-.025.015c-.052.031-.075.042-.137.071-.218.102-.656.296-.857.309.28-.183.706-.284.993-.425-.042-.021.045-.038-.115-.028-.03.002-.66.176-.742.279-.009-.006-.019-.017-.024-.021-.167-.113.089-.013-.115-.061-.114-.027-.344.021-.505-.048zm-19.294.76c-.126.145-.192.32-.439.405-.64.218-.473-.99.226-1.576.37-.31.952-.188 1.504-.123.578.068 1.199-.013 1.733.032-.016.203-.061.298-.374.469-.261.143-.576.207-.884.151-.558-.102-.111.059-.853-.215.011.002.449.317.916.253.15.153.006.08.257.041l.026.134c.045-.062.068-.112.159-.147.206-.079.259.025.269.032-.089.144-.3.245-.453.299.218.081.567-.302.678-.471.104-.157.07-.144.238-.201-.067.265-.381.585-.577.712-.312.201-.658.175-1.062.113-.39-.06-1.742-.364-1.877.325l.174-.029c-.029-.152.025.125-.021-.057-.029-.114.223-.176.361-.148zm18.905-1.338c-.07.212-.061.173-.293.205-.092.013-.332.084-.383-.032-.514-.202-.546-.742-.614-.875l-.086.124c-.592-.364-1.332-.08-1.992-.068a2.71 2.71 0 0 0 .441-.102l.245-.066c.268-.077.105-.021.177-.152l-.653.082-.757.299c-.984.37-2.623 1.49-3.495 1.66-.552.107-1.385.125-1.764-.198-.054-.092-.109-.519.028-.767l.153-.173c-.004-.128.02-.04-.061-.073-.177.185-.078.605-.616.79-.273.094-1.017.188-1.243.098 0 0 .054-.137.167-.101l-.753-.034c-.038.056-.014.011-.039.079-.003.007 0 .029-.009.063l-.69-.169c.077-.046.136-.027.15-.026.177.019.351.11.365.074.004-.011.019-.009.028-.014-.18-.195-1.579-.13-1.582-2.433-.021.304-.067.432-.05.804.072 1.526 1.169 1.958 2.556 1.934a4.35 4.35 0 0 0 .816-.08c.392-.075.471-.195.63-.267-.081.648-2.382.426-3.093.188-1.393-.467-1.339-2.657-.323-3.834.233-.27.721-.54 1.148-.74.786-.367 2.117-.537 3.05-.69.399-.066 1.314-.235 1.694-.134 1.332.351 1.128 1.71 1.998 1.768.489.033 1.067-.226 1.512-.322.612-.134.959.146 1.512.265.405.087 1.199.202 1.474.414.946.728.929 2.076.352 2.504zM90.936 30.04c.198.538.782 1.338 1.222 1.695.269.218.612.483.99.479-.026.148-.083.232-.122.413-.174.8-.54 2.485.018 3.028.385.375 1.042.322 1.665.241.744-.097 1.069-.03 1.458-.488-.198.516-1.934 1.038-2.622.944-.502-.069-.581-.235-.757-.398-.163-.151-.129-.096-.274-.369-.569-1.069.286-2.261-.312-3.078-.484-.66-1.187-1.199-1.464-2.139-.096-.326-.301-1.157-.142-1.503.003-.007.018-.01.021-.026s.016-.016.023-.024c.086.125.069.149.096.319.049.303.102.642.2.907zm8.026-.133c-.159-.073-.203-.284-.406-.54a3.11 3.11 0 0 1-.377-.583c.492.021.746.186.982.481l-.199.642zm14.683-1.678c.387-.174.472-1.02.609-1.479.775.24 1.154 1.41 1.472 1.876.149.218.258.204.386.474.291.607-.236 1.314-.75 1.532-.056.053.036-.002-.088.076-.26.163-1.129.277-1.443-.347-.114-.227-.206-.191-.278-.463.214-.009.268-.064.452.021.342.158.151.304.267.135-.066-.049-.096-.058-.157-.168.378-.027.796.022 1.106-.108l.014-.238c-.148-.169-.526-.284-.798-.303-.261-.025-.493-.11-.681-.223l-.469-.378c.099-.207-.02.018.11-.128.123-.138.047-.164.248-.278zm3.376 1.235c-.07-.095.005.114-.062-.094-.053-.166.199-.363.285-.485.453-.647.566-1.4.577-2.218l.215.837c.026.742-.111 1.7-.919 1.96.139-.345.682-.972.701-1.522-.075.314-.394.895-.566 1.162-.053.082-.085.094-.127.169l-.104.192zm-7.016-1.545c-.139.242-.665.537-.908.637-.201.083-1.021.395-1.149.107.088-.054.115-.03.249-.027.027-.102.002-.048.056-.118l.076-.069c-.103-.109-.097-.043-.221-.172.046-.041-.016-.076.142-.086l-.205-.093c-.321-.132-.466-.209-.695-.403-.217-.183-.239-.085-.602-.435.223.085.171.13.393.218-.089-.239-.364-.451-.603-.555-.333-.144-.092-.157-.547-.057.181-.157.355-.222.648-.478.067-.059.062-.042.125-.09.077-.059.149-.135.225-.204.178-.16.259-.29.447-.455l.468-.385c.28-.289 1.865-1.099 2.516-.989l-.028.242c.303-.066.259-.13.667-.104.595.038 1.667.339 2.039.72.433.442.635.775.54 1.527-.104.82-.527 1.451-.883 1.91-.635.818-1.687.19-1.846-.066.052-.186.19-.336.265-.533l.203-.565c.112-.289.482-.851.196-1.164-.202.092-.172.227-.395.337l.257-.555c-.129.079-.252.315-.35.448-.069.095-.107.118-.182.203-.082.094-.084.128-.159.227-.158.207-.442.79-.649.926.046-.262.495-.897.642-1.062.168-.189.201-.334.356-.567-.173.112-.447.586-.615.779l-.612.752c.083.081.148.104.139.201zm5.502-1.491c-.432-.093-.475-.127-.76-.341a2.02 2.02 0 0 1-.504-.524c-.232-.32-.34-.633-.481-.852l-.274-.469c.085-.067-.004.001.068-.071l.078-.068c.004-.017.021-.014.032-.021.109-.2.527-.5.644-.54.212-.072.092.168.236-.073-.039-.017-.018-.023-.088-.024l-.291.088c-.098.063-.152.12-.277.194-.469.278-.425.352-.552.419.05-.242.413-.675.575-.826.211-.197.458-.56.96-.449.702.155 1.258.611 1.744 1.087l.308.421c.317.516.452.985.501 1.612.05.644-.076 1.927-.504 2.278.029-.272.42-.926.314-1.175-.083.351-.358 1.297-.705 1.502-.245-.405-.151-.508-.734-1.326-.202-.284-.119-.276-.334-.394.112.31.704 1.066.787 1.457l-.931-1.549c.47-.047.55.181 1.015.233-.038-.186-.459-.452-.592-.511-.093-.041-.152-.026-.235-.079zm-23.608-1.671c-.138-.535.68-1.973 1.133-2.146a13.41 13.41 0 0 1-.333 1.935l-.464 1.773-.159-.121c-.055-.036-.054-.035-.136-.05.032.104.034.67.044.896-.214-.228-.31-.873-.337-1.154-.031-.316-.034-.64.094-.932.06-.137.047-.094.158-.201zm26.227.447c-.236-.971-.728-1.242-.813-1.391l.28-.244c.382-.388.31-.769.304-1.146.039.047.099.081.153.145.365.435.579.757.761 1.346.102.331.132.662.172 1.013.044.385.12.828-.16 1.026-.079.033-.347.058-.497-.08l.15-.137c.233-.22.077-.472-.125-.512-.137.169-.081.324-.095.566-.103-.129-.079-.379-.13-.587zm-11.152-3.314c-.196.879-1.1 1.239-1.73 1.684l-.322.237c-.081.068-.001.012-.089.082-.04.031-.042.027-.077.053-.137.101.052.04-.193.101.204-.591.561-.699.614-.843-.194-.03-.008.049-.123-.131-.004-.006-.018-.011-.021-.027s-.014-.018-.023-.026c-.125.099-.075.103-.184.221-.073.08-.131.101-.207.178-.27.276-1.254 1.651-.512 1.597a1.31 1.31 0 0 0 .237-.069c.202-.078.86-.515 1.067-.649.336-.218 1.018-.818 1.45-.834.136.295.404.757.265 1.177-.127.387-.468.71-.552.901.131-.226.378-.599.456-.867.057-.195.015-.402-.009-.606-.015-.127-.122-.339-.21-.435.032.258.218.635.164.852-.059.238-.226.533-.322.691-.031.15-.265.597-.327.677l-.527.466c-.305.217-.973.558-1.387.624l.055-.095c.105-.149.154-.125.254-.2.11-.083.086-.126.251-.244l.503-.611c-.379.1-.284.408-1.228.763-.851.969-2 .571-2.702.918-.219.109-.556.354-.83.381.059-.172-.055-.039.12-.169l.488-.261c-.184.079-.474.246-.635.249.015-.119.004-.103.059-.189.098-.151.032-.087.121-.086-.154.077-.07.055-.242.017l-.022-.102c.002-.227-.102-.351-.073-.63.015-.144.052-.118.064-.298.027-.419-.018-1.003.024-1.574.122-1.638.803-1.734 1.673-2.262.431-.262.964-.866 1.336-1.238.273-.273.382-.364.568-.716-.105.052-.36.44-.592.662.083-.159.308-.444.47-.788.124-.263.643-.93.845-1.084l.374-.27c.871-.615 2.388-.694 3.16-.381.878.356.703 1.342 1.104 1.441.001 0 3.445-.49 4.065 1.496.21.672.029.836-.464 1.58-.436.657-.317.691-1.153.63l-.301-.025c-.214-.005-.191.021-.317-.052.258.002 1.125.041 1.297-.037-.093-.088.038-.037-.166-.055-.606-.053-.531-.079-1.347-.05l.017-.285c-.02.029-.028.021-.047.082-.127.411.091.183-.154.294-.064-.424-.017-.889.06-1.323.04-.221.101-.371.16-.578a1.11 1.11 0 0 0 .047-.271c-.013-.516-.663-.193-.777.246.067-.081.215-.24.304-.281l-.291.452c-.134.242-.364.761-.533.968-.112.138-.243.239-.382.345-.4.304-.961.604-1.381.893l-.424.268c-.016-.192-.056-.009.099-.16.322-.314.848-.539 1.171-.844-.172.097-.267.192-.447.281-.374.186-.409.186-.543.104-.093.218-.044.086-.182.197-.145.116-.014.09-.155.217l-.407-1.381c.261.157.183.205.346.341.311.262.225.289.361.354.16-.324-.523-.92-.601-1.017.259-.39.138-.017.371-.531.033-.071.058-.095.097-.16.054-.092.133-.274.181-.378.07-.151.137-.264.176-.406-.149.081-.05-.031-.138.147-.057.115-.152.352-.255.439.122-.424.436-.867.454-1.016.029-.238.018-.036-.028-.133-.208.085-.128.066-.201.296-.025.08-.098.239-.142.313-.028-.064.156-.544.239-.603l.562-.372c-.194-.067-1.094.503-1.234.905-.168-.126.033-.086-.2-.081-.052.368-.187.593-.32.901zm10.022 1.525c-.138-.074-.383-.327-.53-.463l.08-.176c-.152.046-.05.032-.225.075.118-.262.25-.345.288-.422.022-.265-.097-.604-.135-.892-.04-.307.009-.744-.182-.847-.144.142-.066.141-.091.328l-.274.925c-.078.112-.299.329-.454.368-.182.046-.448-.059-.689-.055-.338-.019-.43-.291-.565-.548-.255-.484-.457-.746-.081-.964.061-.092-.012-.059.192-.059l-.09-.055c-.072-.058-.015.011-.064-.079a3.1 3.1 0 0 1 .36-.556c.14-.131.458-.118.638-.259-.097-.195-.289-.141-.514-.143l.091-.712c.961.235 2.969 1.863 2.982 3.044-.187.14-.16.023-.187.341-.035.409-.084 1.008-.55 1.149zm-9.011-5.309c.046-.16.542-.514.767-.635 1.009-.538 2.456-.455 3.399.056.596.323.419.577.794.613 1.941.188 1.245 1.596.43 2.128a104.47 104.47 0 0 1-1.414-.574c.19-.244.963-.341 1.007-.772-.113-.13-.144-.155-.365-.164-.215-.01-.357-.014-.414.103l.355.043.26.105c-.17.269-.064.071-.366.263-.167.107-.448.29-.657.326-.384.066-1.171.01-1.58-.01-.188-.186-.264-.33-.414-.505-.371-.433-.038-.099-.474-.475-.274-.236-.859-.396-1.328-.5zm-11.156 2.623c.17-.772.205-1.182.603-1.793.3-.461.678-.9 1.194-1.167l1.536-.824c.294-.186 1.238-.693 1.657-.665-.075.218-1.364 1.239-1.72 1.505-.237.177-.946 1.035-1.144 1.301-.102.137-.194.35-.294.471.069-.29.367-.759.512-1.026-.516.234-.773 1.584-.94 1.935l-.42.015c.02-.136.094-.289.077-.337-.214.458.095.297-1.06.584zm2.746 8.075c-.22-.082-.357-.099-.599-.233-.017-.009-.067-.039-.082-.051-.06-.051-.027-.028-.067-.087-.52-.193-1.316-.882-1.468-1.326.087.058.024-.015.102.096l.099.159c.055.062.038.035.075.068-.04-.278-.166-.718-.404-.88-.043.198-.028.173-.025.404-.158-.045-.026.038-.144-.085-.425-.446-1.009-2.14-.727-2.767.148-.329.94-.427.978-1.23-.353.075-.411.276-.973.208l.041-.642c-.597.129-.956 2.11-.809 3.082.101.672.578 1.479 1.015 1.955.177.193.43.301.461.518.044.037.108.058.086.179a.64.64 0 0 1-.094.157c-.151.165-.758.522-1.084.554-.708.069-1.152-.144-1.367-.816-.03-.142-.185-.378-.255-.572-.14-.386-.536-1.81-.799-1.563-.102.096-.077.072.022.33l.55 1.639.17.632.042.077.016.035.017.143c.018.401.002.166.206.412l.021.027c.005.006.018.036.022.029s.015.02.023.029c.079.018.049-.019.094.056-.688-.01-1.424-.264-1.74-.659-.562-.702-.406-2.022-.035-2.866.249-.567.712-1.148 1.335-.709.235.165.363.446.662.511-.067-.142-.122-.179-.195-.293-.183-.284-.416-.491-.589-.785-.244-.415-.361-.869-.555-1.289.01.469.184.931.305 1.35l-.325-.122c-.382-1.226.038-2.574.77-3.564.343-.464 1.12-1.358 1.539-1.68.397-.305 1.166-.931 1.648-.92-.052.148-.123.162-.23.279-.998 1.089-.92 2.077-1.221 2.37-.067-.129-.044-.264-.171-.404-.128.207.14.215-.196.608-.415.485-.941.861-1.248 1.436.151-.116.17-.201.335-.296-.049.186-.198.406-.275.595-.037.092-.076.21-.13.296-.089.144-.119.113-.175.278.268-.136 1.146-1.298 1.556-1.644.395-.334.889-.64 1.466-.772.218-.05.582-.103.813-.093.347.015.433.169.642.265.123-.149.351-.961.479-1.232.34-.723.513-.796.862-1.286.115-.161.301-.3.423-.437.856-.97 2.247-1.681 3.552-2.022.68-.178 2.451-.452 3.054-.128-.108.047-.432.082-.62.156-.2.079-.353.153-.431.333.17-.019.637-.221.865-.287.722-.207 2.512.052 2.9.312-.624.218-1.197.245-1.781.682-.141.105-.324.248-.423.353-.023-.029-.025-.014-.055-.086l-.077-.301c-.131-.375-.607-.623-.993-.488-.091.241.578.774.463 1.234-.267.014-.168-.023-.318-.237-.136-.195-.075-.175-.268-.329l-.187.09c-.007.184-.055.205.084.232-.06-.152-.056-.087-.001-.23.171-.005.325.292.417.454-.204.073-.348-.011-.532-.036-.314-.043-.96.448-1.248.571.01-.247.009-.57-.166-.76.057.862.338.709-.253 1.051l-.006-.82c-.098.213-.078.62-.067.904-.109.073-.147.174-.255.227l.078-1.614c-.334 0-.329.213-.431.526-.057.176-.229.55-.233.659-.057-.466-.102-.845-.456-1.018-.29 0-1.103.302-1.03.513.108-.02.491-.414 1.002-.37.732 1.085.27 2.856-.574 3.559l-.495.448c-.127.101-1.057.711-1.166.735-.22-.305-.213-.403-.087-.704.137.118.115.107.102.315.107-.051.136-.552.186-.713.059-.195.235-.514.257-.67-.15.056-.189.293-.255.459-.075.19-.092.364-.136.554-.21-.087-.206.109-.028-.541.035-.13.155-.324.098-.428-.02.053-.027.093-.051.161-.03.088-.028.056-.062.156l-.12.304c-.053-.088-.05.119-.048-.155.002-.226.171-.571.252-.79l.357-.854c-.465.017-.708.409-.947.742-.041-.039-.089.126-.058-.109-.045.195-.058.136-.119.271-.113.247-.132.673-.332.856-.079-.259.226-1.077.352-1.305.115-.207.381-.558.559-.686.108-.077.142-.059.221-.214-.793.183-1.197 1.496-1.144 2.171.16.086.062-.085.12.172l-.172.027c.107.191.099-.071.136.311l-.224-.094.025.104c.01.225.01.014-.02.113-.028.01-.209.028-.291-.035-.024.789.562 1.063.123 2.352-.188.553-.508 1.737-.268 2.274a4.83 4.83 0 0 1 .21-1.463c.065-.224.136-.393.214-.606.199-.54.13-.492.31-.567.199.539-.47 1.817-.281 2.649.099.437.295.744.352 1.198.059.466-.187.763-.475.958zm-8.516-1.823c.055.058-.005-.032.071.079l.106.232c.01.015.079.104.095.121.092.1.017.04.133.101-.021-.072-.389-.661-.385-1.007.003-.219.011-.077.04-.134.039.243.279.687.412.891l.1.151.264.168.099.358c.021.122-.002.074.037.183.13.362.032.165.073.498.07.569-.066-.204-.045.421.218.035.485.591 1.716.771.875.129 1.469-.052 2.238-.281 1.596-.476 1.538-1.528 2.374-.294.544.804.549.75.402 1.147l-.128-.192c-.278.134-.078.162-.051.401-.096.071-.171.127-.313.148-.015.172-.003.149-.116.233-.36.266-1.142.403-1.535.36-.08-.009-.146-.035-.277-.032l.043-.17c-.466-.059-.818-.211-1.195-.393-.4-.194-.868-.22-1.362-.246.106.138.181.089.479.132.415.06.492.128.789.331.346.237.233.055.311.245-.197.02-.242-.037-.376-.122l-.226.147c-.185.115-1.334.156-1.76.031-.318-.094-.277-.157-.482-.211.597.242.121.264 1.224.384l.162.044c.008-.011.023.016.035.024-.898.007-1.703-.193-2.196-.965-.795-1.245-.575-1.761-.861-2.23-.328-.54-.422-1.986-.356-2.687.118-1.255.627-2.41 1.256-3.418.556-.89.695-.946 1.149-1.555l.894-1.037 1.995-1.866.432-.341c.277-.243.785-.534.864-.691-.383.019-.04-.122-.446.166l-.109.076c-.005-.009-.021.016-.03.003l-.344-.006c.061-.31-.064-.144.156-.23l-.081-.06c-.219.074-.797.574-1.041.783-.059.05-.064.078-.123.133-.104.096-.179.121-.283.233-.332.358-.837.727-1.283 1.247l-.237.279-1.159 1.373c-1.433 1.739-2.162 3.463-2.242 5.853-.035 1.062-.112 2.932.165 3.899.224.782.639 1.207 1.083 1.75.055.067.044.07.112.145.118.132.318.389.405.582.209.463-.004 1.372.035 1.951.038.563.268 1.141.595 1.409.114.094.141.177.258.258 1.251.874 2.349-.158 2.826.009.3.196.248.312.29.729.051.504.225.672.518.989.087.094.183.143.28.236.422.408-.38 2.082.971 1.941a2.05 2.05 0 0 0 .728-.255 2.32 2.32 0 0 0 .296-.218c.108-.095.103-.146.221-.241.184.057.41.331.693.211.172-.073.306-.321.422-.505.15.168.675 1.515.703 1.87.031.399-.139.864.078 1.193.193.292.592.277.806.01.235-.295.534-1.371.69-1.842.301-.911.338-1.931.425-2.117.22.095.094.206.386.19.138-.106.198-.279.367-.37.239-.131.248-.047.444-.285.23-.279.295-.607.471-.928.211.06.349.125.582.007.222-.113.143-.199.454-.288.103.593-.039 1.151-.097 1.76-.199 2.128-.172 4.27-.202 6.405-.004.274-.052.674.378.562.288-.075.205-.473.203-.734l.001-.944-.014-3.812c.186.115.223.202.491.067.253-.127.505-.866.656-1.105.178-.284.834-1.199 1.071-1.301.111.205.195.934.282 1.23a4.41 4.41 0 0 0 .462 1.042c.592.95 1.938 1.678 2.725.438.606-.954-.166-2.963.015-3.972.154.089.563 1.17.704 1.418.834 1.464 1.683 1.271 1.667.804-.005-.151-.205-.529-.252-.763-.063-.317-.281-1.565-.21-1.815l.174-.093c.723-.283 2.418-1.198 2.717-.642.068.125.062.231.044.36-.205.132-.187.06-.452.144-.136.881 1.318.038.646-.87-.535-.723-2.178.352-3.026.633-.469.155-2 .254-1.664-.332.269-.067.757.114 1.085.051.287-.055.571-.241.773-.381.667-.463.644-1.298.83-1.487a1.53 1.53 0 0 1 .674-.118c-.029.166-.084.13-.122.338a2.78 2.78 0 0 0 .459-.154c.19-.088.231-.131.373-.228.171-.116.241-.051.33-.27.071-.175.047-.231.163-.396.27-.037.395.085.741-.031.843-.282.738-1.025.74-1.82-.106.118-.278.619-.477.926-.674 1.045-2.651.378-2.817-.124.157.005.189.066.298.142.542.378 1.832.743 2.213.065-.203.115-.582.347-.869.274l.263-.108c.229-.075.432-.195.521-.417-.179.095-.254.209-.472.293-.616.239-1.555-.418-1.639-.568 1.064-.223.684.027 1.27.087l.099-.189.097.16c.284-.114.332-.096.497-.326l.698-.932c.06-.086.112-.145.173-.258.089-.162.041-.152.176-.202.131.323.03 2.199.136 2.776.236 1.275 1.274 1.535 1.234.767-.25-.131-.307-.049-.507-.294-.126-.154-.2-.319-.244-.563-.124-.673.115-.823.346-1.257l1.075-2.185c.73-1.593 1.048-3.701.484-5.51a10.46 10.46 0 0 0-.99-2.273c-.256-.445-.513-.854-.819-1.239l-.952-1.063c-.248-.274-.623-.572-.839-.794-.413-.424-.87-.728-1.392-1.053-.341-.211-.834-.404-1.175-.065.121.21.596.392.813.515.294.166.531.349.795.535.334.235.606.516.918.754l.521.466c.125.116.223.222.337.349.14.155.181.151.308.336.074.107.081.083.163.178.587.68.991 1.389 1.398 2.252.979 2.081.748 4.463-.184 6.557-.079.178-.713 1.601-.898 1.71-.023-.398-.167-.99.034-1.287.235-.349.259-.254.543-.831.294-.598.64-1.402.625-2.197-.392.07-.388.291-.52.672-.076.219-.2.617-.362.781a3.15 3.15 0 0 0-.21-1.088c-.065-.152-.092-.158-.089-.344.641.079 1.208.041 1.28-.745.179-1.954-.787-3.975-1.94-5.37-.05-.061-.076-.072-.129-.127l-.121-.138-.255-.259c-.883-.86-2.082-1.477-3.235-2-.349-.158-.387-.26-.834-.2-.236-.279-.709-.49-1.038-.673-1.808-1.006-4.864-1.545-6.932-1.351-.515.048-.917.155-1.392.284-.457.124-1.162.49-1.168.491.058-.109.145-.178.239-.263l.14-.121c.098-.146.025-.152-.004-.179-.425-.176-1.986.333-2.391.492-1.071.418-1.962.922-2.965 1.41-.894.435-1.272.732-2.016 1.287l-1.464 1.497-.163.18c-1.282 1.64-3.123 3.608-2.856 5.851.023.195.093.406.088.608zm-6.214-11.494c.172-.173 5.079-2.753 5.599-3.028l.615-.33 2.505-1.313 3.741-1.964 2.525-1.296 2.515-1.303c.527-.265 2.042-1.16 2.619-1.187.039.766-.012 1.544.002 2.312.018.927.594.489.635.39.038-.482-.082-2.404.06-2.654.103-.109.594.147.691.192l.627.315 3.807 1.943 5.037 2.6 5.026 2.653 4.973 2.671c-.04.044-.006.021-.07.066-.019.013-.033.018-.056.031l-1.713.902-1.856.977-2.767 1.48c-.423.236-.664.267-.429.759.384.031.728-.222 1.032-.37l6.246-3.199c.248.787.136 2.145.134 3.046l.005 6.308c.001.327-.075 1.274.134 1.436.2.156.451.02.508-.129.098-.256.045-6.347.044-7.058-.003-1.467.259-3.114-.421-4.316-.173-.305-.472-.549-.807-.736l-2.046-1.129-2.049-1.083-1.039-.548-1.012-.532-2.057-1.078-2.079-1.095-1.042-.547-1.011-.532-6.237-3.2c-.677-.363-1.533-.735-2.465-.547-.988.199-3.284 1.492-4.283 2.02L88.11 12.915l-2.033 1.099c-1.833 1.075-2.6.989-2.609 3.705L83.466 36.6c.004.955-.09 2.05.25 2.893.32.795 1.025.974 1.779 1.395a34.12 34.12 0 0 0 1.037.552l7.19 3.792 10.415 5.29c1.786.604 3.212-.475 4.727-1.226l6.253-3.186 4.13-2.177a45.7 45.7 0 0 1 2.043-1.09l1.033-.554 3.049-1.626c.793-.436 1.304-.629 1.533-1.638.194-.856.125-2.105.126-3.025l-.008-6.265c0-.384.096-1.25-.182-1.412-.203-.119-.447.053-.487.227-.03.128-.01.592-.011.756l-.113 9.295c-.264-.061-.931-.455-1.236-.619l-3.7-1.922-2.493-1.281-1.266-.623c-.316-.157-1.092-.684-1.109.047.057.147 4.512 2.409 4.772 2.552l4.839 2.492c-.023.27-.288.411-.484.526a13.8 13.8 0 0 1-.632.355l-1.269.662-2.547 1.356-1.287.686-6.349 3.347-1.311.663-2.591 1.314-3.242 1.606c-.7.301-.704.305-.713-.202v-.386l.001-.815.011-.816c-.003-.272-.056-.446-.318-.46-.519-.028-.344.858-.344 1.276v1.592c-.424.028-1.101-.356-1.447-.523l-1.295-.638-2.566-1.294-12.74-6.651c-.483-.263-2.2-1.05-2.437-1.413.103-.133 1.528-.785 1.786-.903l3.586-1.819c.432-.227 1.564-.677 1.745-.968.007-.245-.052-.287-.171-.405-.18-.093-1.51.653-1.812.793l-5.363 2.625c-.178-.337-.082-4.903-.083-5.674l.002-14.376c0-.857-.111-1.889.202-2.617.325.048 1.69.853 2.074 1.064l5.599 2.862c.164-.022.669-.416-.112-.753-1.147-.495-2.238-1.158-3.331-1.734l-3.754-2.041z"/><path d="M96.334 16.656l.081.06c-.22.086-.095-.08-.156.23l.344.006c.009.012.025-.013.03-.003l.11-.076c.406-.288.063-.147.446-.166.122-.014.722-.425.883-.523l.897-.517c3.876-2.095 7.077-2.534 11.319-.87 1.406.552 2.081.973 3.258 1.719.239.151.316.146.486-.085-.125-.297-.512-.548-.796-.72-1.043-.632-1.789-1.1-3.046-1.545-1.648-.584-3.176-1.03-5.139-.974-1.913.054-3.311.567-4.866 1.204a21.11 21.11 0 0 0-2.978 1.612c-.163.113-.817.521-.875.648zm8.426 13.907a2.27 2.27 0 0 1-.492-.064c-.295-.07-.288-.022-.455-.125-.458-.006-.609-.062-1.111.011-.352.051-.695.125-.956.294a2.06 2.06 0 0 0-.114.817c.311-.096.374-.305.836-.405.217-.047.88-.156 1.098-.042-.109.104-.389.077-.53.145l.355-.031c-.057.143-.053.158-.23.208-.319.09.005-.248-.423.238l-.044-.158c-.1.121-.126.091-.227.239-.004-.004-.024-.129-.176-.025.039.087-.096.054.114.112.272.076 1.193-.15 1.413-.235 1.471-.564 2.406-.217 3.224-1.021.1-.098.161-.131.254-.217.052-.048.425-.456.415-.57-.056-.127-.068-.141-.17-.195-.174.074-.319.235-.607.408-.139.084-.056.066-.205.053.071.108.034.006.047.164-.273.105-.229.224-.903.346-.443.081-.725.017-1.113.052zm10.546 12.98c.239-.032 6.089-3.106 6.129-3.196.008-.201.024-.15-.081-.279-.204-.021-.306.09-.448.161l-2.704 1.416-3.005 1.65c.021.125.023.14.109.248zM88.575 23.988c.074.391.165 1.001.103 1.384-.301-.01-.562-.331-.536-.659.02-.244.26-.636.433-.725zm-.804-.61c-.167-.271-.272-.478-.558-.416-.094.23.12.309.3.587.729 1.123-.104 1.478.859 2.093-.073.723-.195 1.255-.165 2.032.011.293.008.392.314.362.091-.239.016-1.418.159-2.116.094-.458.216-.232.306-.424.085-.32-.026-.72-.072-1.042-.059-.41-.071-.547-.273-.811-.424-.008-.339.132-.532.388-.078-.093-.17-.382-.338-.654zm36.655 10.004c0 .239-.104 1.177.113 1.228.38.09.265-.76.264-1.014l-.061-5.296-.289.05-.027 5.031zm-38.849.815c-.002.721-.12 1.134.347.905l.013-.991-.033-5.439c-.339-.139-.332.156-.328.461l.001 5.064zm30.687 15.999c.076-.134.31-.254.45-.341.908-.565.783.583-.45.341zm-.315-.203c-.138-.386.258-.778.154-1.185-.242-.096-.282.007-.413.584-.06.263-.045.647-.11.862-.093.225-1.477.972-1.662 1.157l.065.251c.281-.007 1.002-.557 1.36-.775l.627-.449c.166-.113.58.108.837.106.604-.005 1.104-.87.603-1.115-.553-.271-1.095.44-1.461.564zm6.048-34.438l.117-.108c-.002-.272-.122-.259-.537-.485l-3.401-1.877c-.282-.163-1.179-.718-1.466-.703-.058.415.424.485 1.144.897l4.143 2.276zM99.302 45.229l-1.264-.665c-.283-.147-1.011-.607-1.273-.625l-.096.257c.223.249 4.944 2.615 4.996 2.6.136-.102.092-.044.132-.197-.083-.212-.353-.294-.584-.405l-1.91-.965zm23.074-20.552c.073.179.123.392.007.553-.068-.042-.018.028-.095-.081-.042-.059-.258-.572-.265-.711.202-.018.283.064.353.238zm.367.505c.049-.295-.144-.731-.297-.875-.178-.169-.694-.387-.846-.023.065.085-.064-.02.072.113.286.28.196.167.35.803.2.83.214.411.314.719.221.675.098 2.25.16 2.782.227-.007.283.027.334-.193.115-.497.002-2.442-.182-2.812-.087-.175-.121-.043-.227-.254.141-.196.199-.075.322-.261zm-13.915 21.53c.224-.02 4.176-2.066 4.379-2.26l-.028-.227c-.327-.08-.881.316-1.191.471l-1.103.571-1.136.58c-.378.201-.925.382-1.058.628l.137.237zM97.382 10.724l.084.204c.232.002 2.076-1.071 2.416-1.258l1.187-.658c.29-.146.975-.496 1.135-.691l-.062-.209c-.316.027-3.088 1.648-3.613 1.921-.202.105-1.055.559-1.147.691zm11.968-.179c.145-.147.224-.271.461-.122.019.227-.079.098-.046.395.189.023.163.004.294-.036.161.258.286.716-.023.701-.132-.007-.341-.178-.414-.266-.14-.168-.3-.348-.272-.672zm.949 1.245c.23.446.543.521.742.755.089.106.046.054.148.149.117.108.167.226.299.305.121-.046.06-.031.176-.109-.009-.23-.264-.444-.453-.601-.237-.196-.323-.266-.525-.505-.285-.338-.092-.322-.22-.814-.357-1.365-1.553-1.03-1.36-.096.059.29.268.48.407.625.184.194.443.274.786.292zm-1.694-3.6c-.23.246.603.554 1.014.797l.611.334.609.335 1.817 1.015c.119.069.509.361.642.232.269-.261-.662-.611-1.007-.811l-3.044-1.677c-.218-.119-.505-.371-.642-.225zM89.739 50.477c.122-.207.164-.389.311-.606.116-.17.242-.337.393-.465.105-.089.142-.131.24-.233.353-.368 2.416-1.782 2.702-2.059-.011-.465-.347-.182-.533-.02L91.654 48l-.539.406c-.415.331-1.468 1.249-1.543 1.767-.046.32.166.304.166.304zm-.637-35.505l.068.19c.321-.032 1.571-.8 1.95-.999l1.883-1.034-.054-.287c-.178.006-3.669 1.912-3.848 2.13zm29.19 32.416c-.294-.249-.33-.313-.498-.316-.101.105-.064.048-.109.171.085.282 1.896 1.472 2.408 2.077.56.662.579 1.187.781 1.212.22-.337-.219-.965-.388-1.176-.686-.856-1.337-1.241-2.194-1.968zm-37.758-9.389c-.102-.333.236-.477.48-.31a.29.29 0 0 1-.48.31zm-.189.271c.299.026.357.157.663-.018a.51.51 0 0 0 .271-.532c-.043-.509-.696-.566-.953-.149-.165.267-.062.347-.338.52l-1.495.962.092.215c.249-.02 1.534-.837 1.759-.998zm44.14-12.79c.347.07.302-.144.303-.423l.005-2.017c-.003-1 .096-1.174-.356-1.108l-.015 2.052c.001.336-.048 1.297.063 1.496zM90.217 6.04c-.05.521.896 1.4 1.253 1.706l.778.722c.251.199.671.642.793.707.125-.063.075-.024.157-.133-.042-.287-.381-.403-.691-.746-.553-.611-1.279-1.051-1.865-1.824-.141-.185-.203-.285-.198-.576l-.227.143zm-6.955 6.274c-.223-.331.179-.643.426-.303-.035.23-.146.339-.426.303zm.558-.665c-.221-.031-.39-.142-.621-.002a.56.56 0 0 0-.249.537c.066.491.722.56.898.072.111-.309.073-.299.307-.467l.454-.317c.207-.134.849-.492.954-.625l-.053-.219c-.324.029-1.543.88-1.691 1.022zm29.512 30.711l-.063.264c-.459.036-.403-.033-.637-.259-.158-.153-.314-.327-.344-.591.234.001.402.013.567.128l-.371.105c.139.339.575-.048.848.352zm-1.394-.726c-.024.999 1.347 1.602 1.604 1.097.305-.6-.996-1.572-1.604-1.097zM88.341 28.779s-.093-.072-.215-.022c-.09.036-.085.069-.105.153-.052.216-.015 2.175 0 2.495.013.285-.01.761.358.561l-.037-3.188zm29.78-19.801c.011.004.027.001.031.012l.058.005c.007-.002.021-.007.028-.01.138-.057 1.753-1.693 1.991-2.004.147-.191.534-.774.181-.905-.144.221-.03.427-.781 1.163l-1.473 1.489c-.112.134-.096.112-.035.25zm-3.267 6.536c.294.076.373-.056.787.107l.598.262c.312.143.932.568 1.209.545.082-.283-.039-.312-.258-.424l-1.464-.731c-.032-.251.003-.296-.12-.489-.178.097-.129.235-.276.342-.16.117-.305.065-.471.146l-.005.243zM85.626 27.631c.362.123.311-.148.314-.429l.002-.859c.004-1.199.159-1.448-.287-1.332-.089.22-.125 2.375-.029 2.619zm36.082 4.282c.294.054.382-.235.479-.487l.25-.693.21-.732c.083-.351.239-.617-.223-.574-.116.452-.173.837-.341 1.297-.101.278-.369.927-.375 1.189zM87.064 8.334c-.064-.101-.088-.12-.159-.223-.198-.287-.054-.278-.052-.282.186-.078.168-.009.245.128.178.318.373.524.355.775-.154-.021-.304-.265-.389-.398zm-.533-.35c.424.455.38.477.705.896.226-.015.283-.106.399-.208-.023-.189-.162-.326-.255-.481l-.267-.515.217-.162.339.513c.058.093.089.176.129.26.125.263.025.21.204.262.09-.41-.287-1.121-.452-1.238l-.243.168c-.1.07-.173.094-.27.155l-.507.35zm36.217.652c.16-.068.246-.234.347-.463s.214-.336.267-.556c.17.015.205.035.326.083-.057.367-.385.659-.642.9-.082.077-.071.014-.092.128.305.058-.068-.001.244-.157-.069.214-.103.089-.089.311.157-.058.294-.339.387-.478l.346-.515c.176.029.194.055.266.175-.1.316-.68.862-.609 1.062.233.029.135-.081.442-.49l.4-.529c-.11-.119-.86-.54-1.057-.641l-.288.523c-.134.249-.186.31-.248.648zM105.396 10.6c-.385-.039-.387.26-.389.595-.001.208-.078.763.143.849.41.158.381-.302.379-.591-.003-.306.041-.664-.133-.853zm-.315-1.985c-.09.246-.076.597-.064.908.016.42.137.458.473.36.021-.251.093-.968.011-1.202-.054-.154-.339-.123-.42-.066zM91.958 41.438c-.142.421.239.283.583.315.124.162.24.364.377.368.355.008-.077-.469-.106-.529-.073-.145-.014-.508-.046-.727-.29.018-.263.234-.357.475l-.45.098zm4.559 10.058c.244-.053.553-.224.784-.336.375-.181.602-.284.53-.544-.032-.015.007-.052-.15-.034-.146.016-.766.486-.997.519-.245.035-.217-.11-.42.047-.063.236.086.27.254.348zm27.009-3.755c-.069-.206-.29-.195-.084-.494.193.026.165.044.257.223.057.111.099.172.161.27.138.217.227.246.307.557l.185-.11c-.113-.172-.288-.335-.421-.518-.129-.177-.205-.413-.39-.536-.312.126-.214.181-.363.268-.089.052-.272.119-.383.186.074.247.272.483.41.68.289.412.318.528.507.393-.06-.296-.435-.467-.689-1.035.099-.079.096-.105.175-.191l.024.034.046.104c.03.076.017.188.258.169zm-38.129-.069c.069-.155.28-.457.375-.579.318-.413.312-.425.149-.52-.117.066-.046-.011-.147.137l-.617.923c.163.093.289.267.546.283.115-.139.628-.928.635-1.092-.209-.041-.222.11-.412.428-.112.188-.195.381-.315.536-.06-.012-.062-.002-.12-.031-.161-.08-.025-.004-.095-.084zm21.779-28.406c-.757-.136-.946.509-.457.648.135.038.968-.032.457-.648zm-4.732 3.412c.276.04.417-.042.62-.17.343-.216 1.198-.886 1.27-1.268-.119.051-.129.08-.223.172-.316.311-1.557 1.072-1.667 1.267z"/><path d="M101.501 31.589l.023-.061c.031-.229-.021-.299.068-.757.056-.287.148-.468.161-.737-.36-.029-.451.266-.496.685-.019.179-.014.942.244.869zM86.722 48.41c.037-.291.186-.273.298-.543.079-.189.222-.369.238-.548l-.179-.104c-.097.171-.133.42-.255.63-.117.201-.243.309-.313.561.374.08.135.13.455.17.239-.348.469-.529.758-1.12l-.173-.024c-.135.224-.179.354-.325.563-.162.232-.129.427-.504.416zm35.599-.457c.001 0 .018-.115.182.025.028.024.072.104.102.157l.39.639c.086.167.089.224.26.157.001-.009.014-.027-.001-.073l-.045-.078-.697-.986c-.663.129-.363.448-.105.841.18.274.27.49.512.511-.041-.194-.257-.445-.353-.581l-.183-.287c-.169-.258-.084-.22-.08-.29.001-.02.012-.023.018-.034zm-20.41-28.738c.562.049.865-.758.487-.744-.005 0-.436.149-.535.264-.202.237-.067.378.048.48zM97.715 14.5c.046-.303-.057-.168-.363-.515l.111-.532c-.821.019-.368 1.262.252 1.047z"/><path d="M87.367 48.889c.065-.274.702-.968.644-1.241-.151.013-.163.139-.226.258-.132.248-.477.75-.513.925l.161.117c.276.203.327-.014.499-.253l.069-.079c-.117-.136-.055-.017-.117-.172.079-.098.364-.261.445-.655l-.135-.047c-.063.077-.077.2-.132.31-.06.119-.091.153-.167.266-.121.181-.16.431-.253.597-.185.017-.107-.001-.276-.027zm.996-42.028c.006.141.331.993.534 1.08-.033-.368-.324-.649-.39-1.037.073-.087.087-.123.217-.173.179.247.359.831.544.928l.162-.071-.574-.94c-.219-.013-.338.09-.492.213zm36.338 20.55c.09-.202.104-.771.019-.999-.308-.054-.296.081-.298.361-.001.194-.018.418.061.608l.218.031zm-44.353 1.165c-.076-.064-.09-.059-.124-.086l-.077-.066c-.005-.019-.022-.019-.031-.026l-.114.169c-.24-.047-.058-.11-.325-.075-.098.163-.061.283-.025.456l.651.007.044-.378zm41.049 4.913c.2-.014-.004.132.257.255.037-.047.035-.009.061-.103.047-.169-.036-.436-.088-.566-.222-.038-.278-.022-.465.033-.027.091-.065.197-.059.315.011.249.105.213.122.226l.05-.043.021-.024.101-.092zm-1.568-16.044c-.559-.182-.697.441-.451.579a.4.4 0 0 0 .451-.579zm11.604 11.592c-.15.024-.243.071-.383.088-.15.019-.31-.002-.426.032.035.127-.083.113.163.131.131.01.288-.103.508.231l-.027.025-.059.042c-.083.052-.066.003-.149.104.052.042-.107.062.145.036.053-.006.085-.026.172-.033-.051.302-.444.092-.697.212.075.188.289.034.498.034.274 0 .299-.01.289-.301l-.146-.105.112-.496zM122.142 8.32l.325.097c.132-.141.179-.262.29-.41.105-.139.182-.3.216-.487-.042.074-.063.146-.101.212-.071.123-.1.082-.174.219-.146.273-.023.324-.385.401.05-.128.104-.183.165-.28l.485-.793-.238-.118-.259.6c-.079.145-.295.448-.324.561zM96.848 30.047c-.383-.189-.74.165-.386.529.197.015.343-.006.479-.126a.4.4 0 0 0-.093-.403zm27.899 17.233c.191.312.291.531.492.467.062-.185-.06-.192-.166-.321l-.588-.928c-.138.067-.151.081-.178.25.194.099.151.028.254.247.052.11.121.178.186.285zM79.648 26.89c.207.002.157.002.307-.075l.474.129-.004-.365c-.195-.037-.585-.166-.749-.135l-.027.446zm9.689 21.754c.036-.06.019-.036.06-.082l.068-.053c-.06.364-.278.583-.307.904.142-.28.402-.71.448-.924-.1-.055-.162-.111-.296-.131-.117.229-.178.458-.297.693l-.331.626.156.03.499-1.063z"/><path d="M87.885 7.119l.561 1.017.198-.108c-.07-.172-.409-.829-.559-.882.101-.044.082-.013.127-.113-.005-.003-.041-.163-.261.011-.048.038-.033.035-.065.075zm33.722 42.359c-.177-.274-.234-.509-.404-.795l-.107-.125c-.251.054-.173.111-.067.297l.408.707c.116.2.074.257.293.235.018-.159-.043-.196-.123-.319zm-32.589.34c.352.187.96-1.019.893-1.164-.166.018-.305.332-.466.569-.265.39-.419.418-.427.595zm13.67-8.1c-.118-.222.031-.423.257-.434-.056.18-.031.516-.257.434zm.134.282c.137-.154.462-.863.128-.882-.236-.014-.522.389-.405.877l.277.005zm-14.456 7.478a.31.31 0 0 0 .016-.028c.066-.14.043-.154.173-.301.103-.116.118-.14.205-.309.068-.132.308-.523.25-.675-.192-.001-.171.094-.246.251-.184.383-.252.407-.376.651-.163.322-.134.169-.202.335l.18.076zm32.125-42.155l.176.028c.096-.075-.011.053.096-.094l.225-.419.264-.527-.169-.062c-.116.216-.579.836-.592 1.074zM89.558 19.696c-.155.207-.178.145-.133.452.306.153.618.187.575-.303-.18-.119-.194-.155-.442-.149zm25.41 4.939l-.017-.032-.034-.1c-.02-.059-.039-.092-.055-.176.113-.12.097-.113.292-.131.036.139.068.156.084.303-.088.092-.103.159-.251.168l-.019-.032zm-.016.121c.438-.028.71-.619.305-.73-.321-.087-.744.206-.305.73zm9.842-6.789c.13-.115.244-.192.202-.431-.309-.326-.759.065-.481.45l.279-.019zm-39.21-.466c-.081.408.085.535.45.454.204-.495-.13-.651-.45-.454zm39.082 30.576c.023-.047.038.001.024-.091l-.687-1.136-.185.136a3.27 3.27 0 0 1 .424.586c.273.45.252.546.424.506zM90.199 35.021c-.325-.091-.412.001-.522.292.145.225.144.266.536.12l-.014-.412zm-10.198-7.217a.32.32 0 0 1 .047.067l.221-.046c.009.146.037.166-.055.283l-.466.003c-.003-.142.002-.197.168-.372l.085.065zm.314.428a.88.88 0 0 0 .074-.472c-.556-.11-.831-.105-.77.447l.696.025zM86.853 7.83c-.002.004-.146-.005.052.282l.159.223c.085.133.235.377.389.398.018-.251-.177-.457-.355-.775-.077-.137-.059-.205-.245-.128zm2.199-1.364l.527.894c.056.094.025.066.117.105.013-.018.14.017-.013-.293l-.148-.278-.277-.453c-.06-.062.002-.01-.076-.054l-.129.079zm41.619 23.998c.123.082.071.047.24.064.143.014.354.015.537-.106l.001-.185-.772-.013-.006.241zm-9.534-9.355c.31.32.674-.151.303-.448-.271-.008-.35.174-.303.448zm-10.491 9.516c.601.195.639-.56.121-.419-.254.069-.183.238-.121.419zm20.113-2.635l.019-.031c.004-.008.014-.02.018-.028.033-.069.047.068.026-.075s-.063-.079-.138-.104l.002.371c.207.089.534.081.725-.019l-.026-.416c-.33.038.136.011-.372.217.044.043-.112.264.285-.027l-.026.145c-.108.062-.106.056-.252.052l-.057-.13c-.01.008-.021.021-.03.026l-.194.055a.46.46 0 0 1 .02-.033zm-25.739.929c.084.141-.026.018.119.132.058.046.082.064.172.092a.89.89 0 0 0 .431.04l.029-.285c-.142-.023-.49-.083-.634-.04-.075.022-.076.035-.117.062z"/><path d="M79.83 27.413c-.069-.118-.081-.106-.071-.279.104.044.133.108.238.104-.013-.188-.084-.142-.35-.179l.022.437c.183.027.114.001.269-.014.371-.036-.017.151.452-.124l.005-.379c-.217.18-.303.091-.349.193-.079.176.038.136.042.142.194-.095.032-.095.223-.201l-.013.22-.467.081zm9.394 12.208c-.374.075-.416.53.048.536.161-.185.296-.381-.048-.536zm9.675-26.898c.433.104.465-.428.277-.505-.148-.06-.488.18-.277.505zM80.534 37.999a.29.29 0 0 0 .48-.31c-.244-.167-.582-.023-.48.31zm9.633-30.844c.015-.3-.232-.443-.388-.722-.104-.187.015-.176-.169-.21-.163.233.213.575.323.742.122.184.034.171.234.19zm8.837 42.878l-.008.301c-.192.149-.216.129-.378-.01.012-.273.113-.289.386-.291zm.063.409c.001-.036.224-.492-.196-.534-.299-.03-.383.187-.344.478.229.197.242.149.541.056zm32.324-22.971l.015-.226c-.248-.096-.686-.038-.723.303l.708-.077zM83.262 12.314c.28.036.391-.073.426-.303-.248-.34-.65-.028-.426.303zm47.421 18.644c.126.032.198-.031.364-.04l.416-.025c-.083-.263-.506-.234-.753-.202l-.027.267zM117.126 9.736c.388.533.776-.203.196-.263-.127.066-.162.095-.196.263zm-13.836-.591c.255.071.443-.125.331-.377-.296-.183-.502.124-.331.377zm-8.532 34.776c-.314.108-.313-.183-.193-.307.067-.069.162-.058.211.007.091.119.029.216-.019.3zm-.26-.449c-.281.418.061.772.429.423.054-.322-.113-.475-.429-.423z"/><path d="M130.624 27.031c.081.043.745.082.829-.258-.04-.015-.011-.053-.224.003-.673.177-.581.094-.605.255zm-50.876 1.08l.466-.003c.092-.117.064-.137.055-.283l-.221.046c-.011-.025-.04-.061-.047-.067l-.085-.065c-.166.174-.171.229-.168.372zm.704-1.961c-.155-.063-.58-.167-.733-.137l-.005.154c.112.041.228.035.372.054.21.027.161.061.301.13.057-.073.069-.016.065-.2zm18.552 23.883c-.273.002-.373.018-.386.291.162.139.186.159.378.01l.008-.301zm15.858-25.706c.016.084.035.117.055.176l.034.1.017.032c.004.008.013.022.019.032.148-.009.163-.077.251-.168-.016-.147-.048-.165-.084-.303-.195.019-.179.011-.292.131zm15.879 4.247c.279-.035.227.124.216-.136-.172-.014-.216.024-.327.105l.028.387.262.015.027-.267c-.145.103-.161.214-.172.191-.003-.007-.015.015-.029.022l-.005-.316zM94.758 43.921c.048-.084.109-.181.019-.3-.05-.065-.144-.077-.211-.007-.12.124-.121.416.193.307zm3.951-20.329c.147-.009.198-.09.23-.228.038-.164-.024-.222-.105-.274-.147.138-.17.243-.125.501zm3.77.632a.3.3 0 0 0 .106-.39c-.176-.044-.258.122-.263.314l.157.075z"/></g><path d="M11.284 29.406a5.15 5.15 0 0 1 1.274 1.17c.364.433.65.971.858 1.612a7.1 7.1 0 0 1 .338 2.158c.017.711-.113 1.378-.39 2.002-.26.607-.685 1.144-1.274 1.612-.572.451-1.326.771-2.262.962-.503.121-1.092.217-1.768.286l-1.82.104H4.134a10.33 10.33 0 0 1-2.08-.208c-.295-.087-.511-.234-.65-.442-.121-.225-.208-.477-.26-.754-.069-.156-.104-.312-.104-.468V22.672c0-.485.095-.858.286-1.118.208-.277.477-.477.806-.598.329-.139.702-.217 1.118-.234l1.3-.052h1.04 1.092c.572.017 1.161.069 1.768.156.624.069 1.213.208 1.768.416a5.53 5.53 0 0 1 .832.364c.295.139.529.312.702.52.555.503.962 1.092 1.222 1.768.277.659.399 1.335.364 2.028-.035.676-.225 1.326-.572 1.95-.329.624-.823 1.135-1.482 1.534zm-4.55 6.89l1.638-.182c.555-.087.936-.251 1.144-.494.225-.277.381-.598.468-.962.104-.381.13-.763.078-1.144-.035-.399-.147-.771-.338-1.118a2.16 2.16 0 0 0-.702-.858c-.399-.312-.858-.511-1.378-.598a7.81 7.81 0 0 0-1.534-.156l-.676.026c-.191 0-.364.026-.52.078-.139.035-.243.113-.312.234s-.104.303-.104.546a8.8 8.8 0 0 1 0 1.352l-.052 1.3-.026.806c0 .277.095.511.286.702s.468.321.832.39.763.095 1.196.078zm.52-12.48l-1.352-.026c-.347-.017-.624.009-.832.078-.191.052-.329.182-.416.39-.069.191-.095.485-.078.884l-.026.988v.936c0 .347.113.607.338.78.225.156.503.251.832.286.347.035.702.035 1.066 0l.988-.13c.624-.104 1.101-.312 1.43-.624.347-.329.546-.806.598-1.43.069-.78-.139-1.317-.624-1.612-.468-.312-1.109-.485-1.924-.52zm21.675 14.04c.017.173 0 .338-.052.494-.035.104-.087.191-.156.26-.052.069-.121.139-.208.208a2.93 2.93 0 0 1-.572.286 3.54 3.54 0 0 1-.416.078c-.121.035-.251.035-.39 0-.277-.017-.52-.121-.728-.312a3.53 3.53 0 0 1-.728-.806l-.286-.468c-.104-.173-.199-.355-.286-.546l-2.886-5.486c-.139 0-.277.009-.416.026-.139 0-.277.009-.416.026-.364.035-.711.043-1.04.026a9.35 9.35 0 0 0-.988 0h-.494v4.706c0 .139-.009.269-.026.39v.39c0 .087-.009.199-.026.338 0 .139-.009.269-.026.39-.035.191-.113.39-.234.598a1.68 1.68 0 0 1-.494.494c-.364.225-.806.286-1.326.182a2.32 2.32 0 0 1-.65-.26c-.069-.052-.13-.113-.182-.182-.052-.087-.095-.173-.13-.26l-.104-.26c-.017-.104-.043-.199-.078-.286a1.72 1.72 0 0 1-.078-.494V22.62v-.312l.052-.312c.017-.191.078-.381.182-.572.052-.208.139-.355.26-.442.104-.104.26-.191.468-.26.225-.087.546-.121.962-.104l2.314.026 2.288.052 1.586.182a6.44 6.44 0 0 1 1.586.39l.858.364a4.59 4.59 0 0 1 .78.546c.607.555 1.066 1.222 1.378 2.002s.468 1.569.468 2.366c0 .936-.225 1.794-.676 2.574-.433.78-1.135 1.361-2.106 1.742-.035.035-.087.061-.156.078-.052 0-.095.009-.13.026l2.392 4.81.234.416.13.234c.052.087.095.173.13.26.052.087.095.182.13.286l.156.286.13.598zm-6.5-9.256c.312 0 .607-.052.884-.156a2.92 2.92 0 0 0 .78-.468c.243-.191.442-.407.598-.65.156-.26.243-.537.26-.832.069-.867-.156-1.508-.676-1.924-.52-.433-1.205-.667-2.054-.702l-1.664-.052h-1.69V26v2.6h3.562zm24.64 8.632a1.89 1.89 0 0 1 .026.312 1.61 1.61 0 0 1 .026.312c0 .208-.061.399-.182.572a1.37 1.37 0 0 1-.208.26c-.087.069-.191.13-.312.182a2.13 2.13 0 0 1-1.378.26c-.243-.069-.459-.182-.65-.338-.035-.035-.061-.052-.078-.052-.017-.017-.035-.043-.052-.078l-.052-.052a.17.17 0 0 0-.078-.078 2.27 2.27 0 0 1-.208-.234l-.156-.26c-.035-.087-.078-.165-.13-.234-.035-.087-.078-.173-.13-.26-.035-.069-.069-.13-.104-.182-.035-.069-.061-.139-.078-.208-.069-.156-.113-.295-.13-.416l-.546-1.274-3.588.026c-1.179 0-2.366-.009-3.562-.026l-.546 1.274a1.02 1.02 0 0 0-.078.208.46.46 0 0 1-.052.208l-.104.208a1.42 1.42 0 0 1-.078.182l-.156.26-.13.234c-.035.087-.078.173-.13.26a2.26 2.26 0 0 1-.208.234.17.17 0 0 0-.078.078l-.052.052c-.017.035-.035.061-.052.078-.017 0-.043.017-.078.052-.191.156-.407.269-.65.338-.485.069-.945-.017-1.378-.26-.121-.052-.225-.113-.312-.182-.087-.087-.156-.173-.208-.26-.121-.173-.182-.364-.182-.572v-.312l.052-.312a4.72 4.72 0 0 1 .13-.468l.078-.234 5.408-13.312.156-.416c.035-.104.078-.199.13-.286a1.3 1.3 0 0 0 .13-.312c.087-.225.182-.425.286-.598.052-.104.113-.199.182-.286l.208-.26c.104-.139.251-.251.442-.338.243-.087.52-.13.832-.13.329 0 .615.043.858.13.191.087.338.199.442.338l.39.546c.104.173.199.373.286.598.035.121.078.225.13.312a1.43 1.43 0 0 1 .13.286l.156.416L46.86 36.53l.078.234c.052.156.095.312.13.468zm-6.162-6.37l-.702-1.56-.728-1.638-.208-.468-.208-.494-.182.494-.208.468-.754 1.638-.676 1.56-.468 1.144h4.602l-.468-1.144zm9.106 5.382l.026-2.054.026-3.822.026-1.716v-1.82-1.664l.052-1.638v-.104l.026-.52.026-.572c.017-.312.113-.65.286-1.014.121-.243.303-.451.546-.624.277-.139.546-.208.806-.208a2.23 2.23 0 0 1 .364.026 2.05 2.05 0 0 1 .338.026c.225.035.425.139.598.312.104.087.199.225.286.416.035.104.061.208.078.312.035.087.061.182.078.286.017.121.026.234.026.338a1.9 1.9 0 0 1 .026.312c0 .121-.009.234-.026.338v.286.442l-.156 13.494v.26a1.12 1.12 0 0 1-.026.208 1.64 1.64 0 0 1-.026.26l-.104.286c-.017.087-.043.182-.078.286a2.38 2.38 0 0 1-.182.26 1.18 1.18 0 0 1-.208.208c-.139.139-.364.234-.676.286a2.04 2.04 0 0 1-1.326-.13c-.208-.139-.355-.312-.442-.52-.052-.052-.078-.104-.078-.156-.017-.035-.035-.061-.052-.078s-.035-.043-.052-.078a1.48 1.48 0 0 1-.078-.26 1.9 1.9 0 0 1-.026-.312l-.052-.26c0-.087-.009-.173-.026-.26-.017-.139-.017-.286 0-.442v-.39zm20.625.78a6.36 6.36 0 0 1-.13.936c-.052.329-.217.598-.494.806a1.36 1.36 0 0 1-.702.312c-.26.035-.52.017-.78-.052-.243-.052-.477-.139-.702-.26-.225-.139-.407-.303-.546-.494l-1.638-2.236-1.482-2.34-2.184-3.302-.936-1.56-1.014-1.638-.078 9.932v.234c0 .277-.052.555-.156.832-.087.26-.243.485-.468.676-.173.139-.399.234-.676.286-.433.087-.797.061-1.092-.078-.277-.139-.503-.329-.676-.572-.156-.243-.269-.52-.338-.832a3.6 3.6 0 0 1-.026-.962v-.442l.052-2.028.026-3.77.026-1.69v-1.794-2.366l.104-2.34c.035-.399.13-.737.286-1.014.069-.243.251-.451.546-.624.191-.121.433-.199.728-.234.312-.035.581-.026.806.026.087.035.173.078.26.13.087.035.173.078.26.13a2.81 2.81 0 0 1 .234.208 1.49 1.49 0 0 1 .234.234c.087.087.165.182.234.286l.208.26.156.286a2.38 2.38 0 0 0 .182.26l.286.416 6.006 9.464v-1.716l-.026-1.69-.026-1.82v-2.34l.078-2.34c0-.295.087-.633.26-1.014.087-.225.234-.407.442-.546s.442-.234.702-.286a1.97 1.97 0 0 1 .78 0 1.52 1.52 0 0 1 .676.312 1.69 1.69 0 0 1 .156.182c.052.069.095.147.13.234a2.35 2.35 0 0 1 .156.598 3.14 3.14 0 0 1 .078.65v6.63l.052 6.63.026.728c.017.225.017.459 0 .702z" fill="#fff"/></svg>