<svg width="117" height="7" viewBox="0 0 117 7" fill="none" xmlns="http://www.w3.org/2000/svg">
<path style="fill: #FFF" d="M32.5439 1.30136L31.6516 2.60272H29.1458H26.6373L26.632 1.60712L26.6241 0.611506L25.6055 1.41002L24.5842 2.21105V4.50297V6.79742H25.6108H26.6373V5.5466V4.29577L29.1431 4.30082L31.6463 4.3084L32.5333 5.5466L33.4177 6.78479L34.5838 6.79237L35.7498 6.79742L35.6577 6.67866C35.2734 6.16822 33.2967 3.48715 33.2967 3.47704C33.2967 3.46946 33.7968 2.75434 34.4101 1.89013C35.0234 1.0234 35.5735 0.245101 35.634 0.156659L35.7472 -1.04904e-05H34.5917H33.4362L32.5439 1.30136Z" fill="#30435A"/>
<path style="fill: #FFF" d="M91.8358 0.505569C91.4805 0.786058 90.912 1.2308 90.5724 1.49865C90.2329 1.76398 89.7354 2.15565 89.4669 2.36539C88.9747 2.74948 88.7352 2.939 88.1771 3.37363C87.7534 3.70213 87.7823 3.65918 87.8113 3.92956C88.0008 5.61249 89.2221 6.65106 91.2173 6.82289C91.4279 6.84058 92.4649 6.84816 94.3496 6.84058C96.8685 6.833 97.1949 6.82794 97.4292 6.79004C98.3741 6.63084 99.069 6.32256 99.5849 5.82475C100.261 5.17533 100.577 4.23026 100.493 3.10073C100.38 1.55172 99.4902 0.543473 97.8924 0.1518C97.3397 0.0178723 97.337 0.0178723 94.8233 0.00776482L92.4807 0.000184059L91.8358 0.505569ZM96.9422 1.77156C97.466 1.83221 97.7845 1.96361 98.0609 2.23399C98.2662 2.43362 98.3899 2.64335 98.461 2.92637C98.5215 3.16137 98.5215 3.69455 98.461 3.92703C98.3188 4.47537 97.9056 4.86957 97.3239 5.01361C96.9659 5.10205 96.7106 5.10711 93.9679 5.097C91.5832 5.08942 91.2489 5.08436 91.0962 5.04646C90.4145 4.88474 90.0749 4.6093 89.8696 4.05338C89.8012 3.86386 89.7959 3.83101 89.7986 3.42417C89.7986 3.02239 89.8038 2.98196 89.8696 2.79749C90.1013 2.15818 90.5092 1.88527 91.4147 1.75893C91.5858 1.73618 96.7369 1.74629 96.9422 1.77156Z" fill="#30435A"/>
<path style="fill: #FFF" d="M0 3.42407V6.82278H0.987059H1.97412V5.9889V5.15754L5.10112 5.14743C7.83067 5.13985 8.25708 5.13227 8.46765 5.09689C9.27309 4.96044 9.78109 4.73807 10.1891 4.34892C10.5049 4.04316 10.6734 3.75004 10.7813 3.29772C10.8234 3.13347 10.8313 2.99702 10.8287 2.56491C10.8287 2.10248 10.8208 2.00899 10.7708 1.8321C10.6392 1.3722 10.497 1.12709 10.1891 0.831439C9.86795 0.523154 9.49682 0.328581 8.96513 0.1896C8.37552 0.0354571 8.60715 0.0430379 4.11406 0.0329304L0 0.0228224V3.42407ZM7.94385 1.7942C8.31235 1.83968 8.49397 1.90791 8.6519 2.057C8.82299 2.22125 8.88353 2.39308 8.8651 2.66852C8.84141 2.99702 8.644 3.22949 8.30709 3.32299C8.00965 3.40385 7.72012 3.41143 4.85106 3.41143H1.97412V2.59018V1.76893H4.85106C6.66725 1.76893 7.80698 1.77904 7.94385 1.7942Z" fill="#30435A"/>
<path style="fill: #FFF" d="M13.6478 3.31288C12.2448 5.11964 11.0551 6.64843 11.0051 6.70907L10.9182 6.82278L12.0448 6.81773L13.1687 6.81015L13.6188 6.22138L14.0663 5.63513H17.1617L20.2545 5.6326L20.9599 5.0792C21.3468 4.77345 21.6679 4.52075 21.6706 4.51317C21.6732 4.50559 20.8941 3.49229 19.9386 2.26421L18.2014 0.0278764H17.2012H16.201L13.6478 3.31288ZM18.1251 2.79234C18.6146 3.41649 19.0437 3.96736 19.0779 4.01031L19.1411 4.0937H17.2038H15.2665L16.2325 2.85551C16.7642 2.17576 17.2091 1.62742 17.217 1.63753C17.2275 1.64764 17.6355 2.16566 18.1251 2.79234Z" fill="#30435A"/>
<path style="fill: #FFF" d="M36.9292 3.42407V6.82278H37.9557H38.9823V5.55932V4.29586H42.5357H46.0891V5.55932V6.82278H47.1288H48.1685V3.42407V0.0253496H47.1288H46.0891V1.30145V2.57755H42.5357H38.9823V1.30145V0.0253496H37.9557H36.9292V3.42407Z" fill="#30435A"/>
<path style="fill: #FFF" d="M49.9058 3.42407V6.82278H50.9323H51.9588L51.9641 4.68753L51.972 2.55228L53.9251 4.19478L55.8781 5.83728H56.294L56.7099 5.83476L58.6577 4.19478C59.729 3.29267 60.6134 2.5548 60.6265 2.5548C60.6371 2.55228 60.645 3.51251 60.645 4.68753V6.82278H61.6715H62.698V3.42407V0.0253496L61.7452 0.0278764H60.7897L58.5419 1.91044L56.2966 3.79047L56.1203 3.64138C56.0255 3.56052 55.0121 2.714 53.8724 1.75882L51.7957 0.0253496H50.8507H49.9058V3.42407Z" fill="#30435A"/>
<path style="fill: #FFF" d="M64.2061 2.02674C64.2166 4.20242 64.2166 4.19989 64.3693 4.71286C64.6746 5.71858 65.4511 6.39832 66.6171 6.68386C67.2278 6.83548 67.2541 6.83548 69.9231 6.83548C72.5921 6.83548 72.6185 6.83548 73.2291 6.68386C74.3952 6.39832 75.1716 5.71858 75.477 4.71286C75.6296 4.19989 75.6296 4.20242 75.6402 2.02674L75.6507 0.0254097H74.611H73.5713L73.5634 1.9762L73.5555 3.92951L73.4871 4.12156C73.3212 4.58904 72.9791 4.87458 72.3921 5.03631C72.1868 5.0919 72.1815 5.0919 69.9231 5.0919H67.6595L67.4489 5.03378C66.8067 4.86195 66.4487 4.52587 66.3197 3.975C66.2829 3.8158 66.2776 3.54542 66.2776 1.9105V0.0254097H65.2353H64.1956L64.2061 2.02674Z" fill="#30435A"/>
<path style="fill: #FFF" d="M76.6748 0.922409V1.81947H78.7674H80.8599V4.32113V6.82278H81.8996H82.9393V4.32113V1.81947H85.0319H87.1245V0.922409V0.0253496H81.8996H76.6748V0.922409Z" fill="#30435A"/>
<path style="fill: #FFF" d="M101.196 0.712674C101.48 1.09171 102.625 2.62303 103.738 4.11139L105.768 6.82278H106.76H107.753L110.171 3.5959C111.501 1.82199 112.648 0.293204 112.717 0.19718L112.843 0.0253496H111.585L110.327 0.0278764L108.566 2.46636C107.597 3.80563 106.794 4.89979 106.784 4.89727C106.773 4.89221 105.968 3.79553 104.997 2.45625L103.228 0.0253496H101.954H100.68L101.196 0.712674Z" fill="#30435A"/>
<path style="fill: #FFF" d="M112.327 2.312C111.43 3.55525 110.337 5.06383 109.9 5.66524C109.461 6.26665 109.09 6.77961 109.077 6.80235C109.05 6.84531 109.111 6.84784 110.216 6.84784H111.385L113.804 3.62095C115.133 1.84705 116.281 0.318259 116.349 0.222235L116.476 0.0504045L115.217 0.0529313H113.959L112.327 2.312Z" fill="#30435A"/>
</svg>
